<?xml version="1.0" standalone="no"?>
<!DOCTYPE svg PUBLIC "-//W3C//DTD SVG 20010904//EN"
 "http://www.w3.org/TR/2001/REC-SVG-20010904/DTD/svg10.dtd">
<svg version="1.0" xmlns="http://www.w3.org/2000/svg"
 width="244.000000pt" height="244.000000pt" viewBox="0 0 244.000000 244.000000"
 preserveAspectRatio="xMidYMid meet">
<metadata>
Created by potrace 1.14, written by Peter Selinger 2001-2017
</metadata>
<g transform="translate(0.000000,244.000000) scale(0.100000,-0.100000)"
fill="#000000" stroke="none">
<path d="M1088 2434 c-2 -1 -26 -6 -53 -9 -238 -31 -493 -161 -676 -344 -188
-188 -306 -422 -346 -686 -9 -65 -9 -274 1 -350 32 -251 160 -501 350 -690
238 -236 540 -356 876 -350 155 3 266 22 400 70 325 117 601 393 723 724 24
64 33 97 53 186 27 123 24 422 -6 501 -5 13 -8 24 -5 24 8 0 -53 167 -88 240
-143 299 -423 539 -737 633 -128 39 -201 50 -352 52 -75 1 -139 1 -140 -1z"/>
</g>
</svg>
